<svg xmlns="http://www.w3.org/2000/svg" xmlns:xlink="http://www.w3.org/1999/xlink" width="1080" zoomAndPan="magnify" viewBox="0 0 810 1012.49997" height="1350" preserveAspectRatio="xMidYMid meet" version="1.0"><defs><g/><clipPath id="9fad83ccb4"><rect x="0" width="522" y="0" height="208"/></clipPath></defs><g transform="matrix(1, 0, 0, 1, 145, 401)"><g clip-path="url(#9fad83ccb4)"><g fill="#11367b" fill-opacity="1"><g transform="translate(0.778001, 154.835465)"><g><path d="M 66.515625 0 L 24.5625 -46.484375 L 24.5625 0 L 11.25 0 L 11.25 -101.875 L 24.5625 -101.875 L 24.5625 -54.671875 L 66.65625 -101.875 L 83.46875 -101.875 L 37.28125 -50.875 L 83.90625 0 Z M 66.515625 0 "/></g></g></g><g fill="#11367b" fill-opacity="1"><g transform="translate(88.326531, 154.835465)"><g><path d="M 24.5625 -67.09375 C 26.894531 -71.675781 30.226562 -75.234375 34.5625 -77.765625 C 38.90625 -80.296875 44.191406 -81.5625 50.421875 -81.5625 L 50.421875 -67.828125 L 46.921875 -67.828125 C 32.015625 -67.828125 24.5625 -59.738281 24.5625 -43.5625 L 24.5625 0 L 11.25 0 L 11.25 -80.109375 L 24.5625 -80.109375 Z M 24.5625 -67.09375 "/></g></g></g><g fill="#11367b" fill-opacity="1"><g transform="translate(142.843401, 154.835465)"><g><path d="M 18.125 -93.109375 C 15.59375 -93.109375 13.445312 -93.984375 11.6875 -95.734375 C 9.9375 -97.492188 9.0625 -99.640625 9.0625 -102.171875 C 9.0625 -104.703125 9.9375 -106.84375 11.6875 -108.59375 C 13.445312 -110.351562 15.59375 -111.234375 18.125 -111.234375 C 20.5625 -111.234375 22.628906 -110.351562 24.328125 -108.59375 C 26.035156 -106.84375 26.890625 -104.703125 26.890625 -102.171875 C 26.890625 -99.640625 26.035156 -97.492188 24.328125 -95.734375 C 22.628906 -93.984375 20.5625 -93.109375 18.125 -93.109375 Z M 24.5625 -80.109375 L 24.5625 0 L 11.25 0 L 11.25 -80.109375 Z M 24.5625 -80.109375 "/></g></g></g><g fill="#11367b" fill-opacity="1"><g transform="translate(178.798223, 154.835465)"><g><path d="M 44.296875 -81.421875 C 51.210938 -81.421875 57.273438 -79.910156 62.484375 -76.890625 C 67.703125 -73.867188 71.578125 -70.066406 74.109375 -65.484375 L 74.109375 -80.109375 L 87.5625 -80.109375 L 87.5625 1.75 C 87.5625 9.0625 86 15.566406 82.875 21.265625 C 79.757812 26.960938 75.300781 31.421875 69.5 34.640625 C 63.707031 37.859375 56.960938 39.46875 49.265625 39.46875 C 38.734375 39.46875 29.957031 36.984375 22.9375 32.015625 C 15.925781 27.046875 11.789062 20.269531 10.53125 11.6875 L 23.6875 11.6875 C 25.144531 16.5625 28.160156 20.484375 32.734375 23.453125 C 37.316406 26.429688 42.828125 27.921875 49.265625 27.921875 C 56.566406 27.921875 62.53125 25.628906 67.15625 21.046875 C 71.789062 16.460938 74.109375 10.03125 74.109375 1.75 L 74.109375 -15.0625 C 71.472656 -10.382812 67.570312 -6.484375 62.40625 -3.359375 C 57.25 -0.242188 51.210938 1.3125 44.296875 1.3125 C 37.179688 1.3125 30.722656 -0.4375 24.921875 -3.9375 C 19.117188 -7.445312 14.5625 -12.367188 11.25 -18.703125 C 7.9375 -25.046875 6.28125 -32.257812 6.28125 -40.34375 C 6.28125 -48.53125 7.9375 -55.71875 11.25 -61.90625 C 14.5625 -68.09375 19.117188 -72.890625 24.921875 -76.296875 C 30.722656 -79.710938 37.179688 -81.421875 44.296875 -81.421875 Z M 74.109375 -40.203125 C 74.109375 -46.242188 72.890625 -51.503906 70.453125 -55.984375 C 68.015625 -60.460938 64.722656 -63.894531 60.578125 -66.28125 C 56.441406 -68.675781 51.890625 -69.875 46.921875 -69.875 C 41.953125 -69.875 37.421875 -68.703125 33.328125 -66.359375 C 29.234375 -64.023438 25.96875 -60.613281 23.53125 -56.125 C 21.09375 -51.644531 19.875 -46.382812 19.875 -40.34375 C 19.875 -34.207031 21.09375 -28.875 23.53125 -24.34375 C 25.96875 -19.8125 29.234375 -16.347656 33.328125 -13.953125 C 37.421875 -11.566406 41.953125 -10.375 46.921875 -10.375 C 51.890625 -10.375 56.441406 -11.566406 60.578125 -13.953125 C 64.722656 -16.347656 68.015625 -19.8125 70.453125 -24.34375 C 72.890625 -28.875 74.109375 -34.160156 74.109375 -40.203125 Z M 74.109375 -40.203125 "/></g></g></g><g fill="#11367b" fill-opacity="1"><g transform="translate(277.600897, 154.835465)"><g><path d="M 46.1875 1.3125 C 38.6875 1.3125 31.890625 -0.390625 25.796875 -3.796875 C 19.703125 -7.210938 14.925781 -12.0625 11.46875 -18.34375 C 8.007812 -24.625 6.28125 -31.910156 6.28125 -40.203125 C 6.28125 -48.378906 8.054688 -55.609375 11.609375 -61.890625 C 15.171875 -68.179688 20.019531 -73.007812 26.15625 -76.375 C 32.300781 -79.738281 39.175781 -81.421875 46.78125 -81.421875 C 54.375 -81.421875 61.238281 -79.738281 67.375 -76.375 C 73.519531 -73.007812 78.367188 -68.207031 81.921875 -61.96875 C 85.484375 -55.738281 87.265625 -48.484375 87.265625 -40.203125 C 87.265625 -31.910156 85.4375 -24.625 81.78125 -18.34375 C 78.125 -12.0625 73.175781 -7.210938 66.9375 -3.796875 C 60.707031 -0.390625 53.789062 1.3125 46.1875 1.3125 Z M 46.1875 -10.375 C 50.96875 -10.375 55.453125 -11.492188 59.640625 -13.734375 C 63.828125 -15.984375 67.210938 -19.347656 69.796875 -23.828125 C 72.378906 -28.304688 73.671875 -33.765625 73.671875 -40.203125 C 73.671875 -46.628906 72.398438 -52.082031 69.859375 -56.5625 C 67.328125 -61.050781 64.015625 -64.390625 59.921875 -66.578125 C 55.835938 -68.773438 51.40625 -69.875 46.625 -69.875 C 41.75 -69.875 37.289062 -68.773438 33.25 -66.578125 C 29.207031 -64.390625 25.96875 -61.050781 23.53125 -56.5625 C 21.09375 -52.082031 19.875 -46.628906 19.875 -40.203125 C 19.875 -33.671875 21.066406 -28.160156 23.453125 -23.671875 C 25.847656 -19.191406 29.039062 -15.851562 33.03125 -13.65625 C 37.03125 -11.46875 41.414062 -10.375 46.1875 -10.375 Z M 46.1875 -10.375 "/></g></g></g><g fill="#11367b" fill-opacity="1"><g transform="translate(371.141904, 154.835465)"><g><path d="M 24.5625 -67.09375 C 26.894531 -71.675781 30.226562 -75.234375 34.5625 -77.765625 C 38.90625 -80.296875 44.191406 -81.5625 50.421875 -81.5625 L 50.421875 -67.828125 L 46.921875 -67.828125 C 32.015625 -67.828125 24.5625 -59.738281 24.5625 -43.5625 L 24.5625 0 L 11.25 0 L 11.25 -80.109375 L 24.5625 -80.109375 Z M 24.5625 -67.09375 "/></g></g></g><g fill="#11367b" fill-opacity="1"><g transform="translate(425.658774, 154.835465)"><g><path d="M 82.296875 -80.109375 L 82.296875 0 L 69 0 L 69 -11.84375 C 66.457031 -7.75 62.921875 -4.554688 58.390625 -2.265625 C 53.859375 0.0234375 48.863281 1.171875 43.40625 1.171875 C 37.175781 1.171875 31.578125 -0.117188 26.609375 -2.703125 C 21.640625 -5.285156 17.71875 -9.160156 14.84375 -14.328125 C 11.96875 -19.492188 10.53125 -25.78125 10.53125 -33.1875 L 10.53125 -80.109375 L 23.6875 -80.109375 L 23.6875 -34.9375 C 23.6875 -27.039062 25.679688 -20.972656 29.671875 -16.734375 C 33.671875 -12.492188 39.128906 -10.375 46.046875 -10.375 C 53.160156 -10.375 58.765625 -12.566406 62.859375 -16.953125 C 66.953125 -21.335938 69 -27.722656 69 -36.109375 L 69 -80.109375 Z M 82.296875 -80.109375 "/></g></g></g></g></g></svg>